Coordinates
version=1
nRows=6
nColumns=36
inDegrees=yes

Units are S.I. units (second, meters, Newtons, ...)
If the header above contains a line with 'inDegrees', this indicates whether rotational values are in degrees (yes) or radians (no).

endheader
time	pelvis_tilt	pelvis_list	pelvis_rotation	pelvis_tx	pelvis_ty	pelvis_tz	hip_flexion_r	hip_adduction_r	hip_rotation_r	knee_angle_r	knee_angle_r_beta	ankle_angle_r	subtalar_angle_r	mtp_angle_r	hip_flexion_l	hip_adduction_l	hip_rotation_l	knee_angle_l	knee_angle_l_beta	ankle_angle_l	subtalar_angle_l	mtp_angle_l	lumbar_extension	lumbar_bending	lumbar_rotation	arm_flex_r	arm_add_r	arm_rot_r	elbow_flex_r	pro_sup_r	arm_flex_l	arm_add_l	arm_rot_l	elbow_flex_l	pro_sup_l
      4.91250000	     -9.85027512	      0.58824624	     -1.94271444	      0.43115326	      0.90332002	     -0.13671163	      3.11353165	     -4.63378816	     -9.29552955	      1.36448712	      0.02381479	      0.08919179	    -12.36404616	     -7.49999987	      7.99112959	     -5.93203847	    -13.45025865	      0.86393108	      0.01507844	     -2.94244415	     -4.64869188	     -7.49999987	      2.58424422	      0.57550103	      1.01818804	     -9.38618816	     -7.34954069	    -23.55661861	     68.20640498	     82.77421160	     -2.94072646	     -6.74359487	    -23.91898167	     36.99657244	     82.89252187
      4.91666670	     -9.65813944	      0.60246725	     -1.91120733	      0.43166998	      0.90287866	     -0.13662742	      2.81456463	     -4.64424438	     -9.26265966	      1.27935690	      0.02232899	     -0.01932807	    -12.37254178	     -7.49999987	      7.72493024	     -5.91493069	    -13.42307334	      0.85713956	      0.01495991	     -3.00413375	     -4.71401247	     -7.49999987	      2.45987911	      0.50974329	      1.00177802	     -9.32280115	     -7.30737592	    -23.51123135	     68.03535721	     82.92491099	     -2.83639138	     -6.71654677	    -23.83387880	     36.22686633	     82.49460567
      4.92083330	     -9.52230899	      0.61481085	     -1.90243078	      0.43197876	      0.90291938	     -0.13575323	      2.59516798	     -4.63902269	     -9.26775017	      1.20672761	      0.02106137	     -0.01094193	    -12.21776022	     -7.49999987	      7.51886963	     -5.91154898	    -13.37487973	      0.83599404	      0.01459085	     -3.03415041	     -4.72251809	     -7.49999987	      2.37437206	      0.41878961	      0.98397665	     -9.33137024	     -7.19598161	    -23.52934295	     67.91255998	     83.02505065	     -2.76847485	     -6.70165021	    -23.83226675	     35.56555930	     82.21424049
      4.92500000	     -9.35993531	      0.63439539	     -1.93043957	      0.43145297	      0.90448711	     -0.13653055	      2.36996725	     -4.65373536	     -9.21536970	      1.13155324	      0.01974933	     -0.08608008	    -12.22853892	     -7.49999987	      7.29935375	     -5.89528846	    -13.44736637	      0.82154974	      0.01433875	     -3.07020192	     -4.62742656	     -7.49999987	      2.25624971	      0.33425205	      0.97758354	     -9.20972778	     -7.17412650	    -23.41676593	     67.69272095	     83.09280495	     -2.69618572	     -6.64019929	    -23.88966133	     34.88096013	     81.99223609
      4.92916670	     -9.20134483	      0.66220186	     -1.93639291	      0.43101607	      0.90073617	     -0.13706359	      2.17824335	     -4.68533208	     -9.23648992	      1.08040283	      0.01885659	     -0.08182868	    -12.22208734	     -7.49999987	      7.12416533	     -5.84156692	    -13.42651844	      0.82956904	      0.01447871	     -3.16012758	     -4.85919789	     -7.49999987	      2.11789146	      0.25803984	      0.93522690	     -9.08186780	     -7.27914196	    -23.05297672	     67.67309566	     81.65699463	     -2.69631674	     -6.62520551	    -23.79764594	     34.45217152	     80.66500512
      4.93333330	     -9.17777556	      0.67094359	     -1.93618698	      0.43170057	      0.90495693	     -0.13540672	      2.15204478	     -4.67705351	     -9.22754616	      1.07751879	      0.01880625	     -0.10344943	    -12.19535061	     -7.49999987	      7.09986019	     -5.85024789	    -13.42441930	      0.86273897	      0.01505764	     -3.21171866	     -4.84256300	     -7.49999987	      2.08275303	      0.16353842	      0.97743120	     -9.12170556	     -7.20841977	    -23.03177303	     67.64441899	     81.66379570	     -2.83272534	     -6.56322531	    -23.79527240	     34.34920354	     80.66981827
